<?xml version="1.0" encoding="UTF-8" standalone="no" ?>
<!DOCTYPE svg PUBLIC "-//W3C//DTD SVG 1.1//EN" "http://www.w3.org/Graphics/SVG/1.1/DTD/svg11.dtd">
<svg xmlns="http://www.w3.org/2000/svg" xmlns:xlink="http://www.w3.org/1999/xlink" version="1.1" width="24" height="24" viewBox="0 0 21 21" xml:space="preserve">
<desc>Created with Fabric.js 4.6.0</desc>
<defs>
</defs>
<g transform="matrix(-1.1 0 0 1.1 8.28 8.3)" id="3mLxmVH7IumztTdZjq3bH"  >
<path style="stroke: rgb(0,0,0); stroke-width: 1; stroke-dasharray: none; stroke-linecap: round; stroke-dashoffset: 0; stroke-linejoin: round; stroke-miterlimit: 4; fill: none; fill-rule: evenodd; opacity: 1;" vector-effect="non-scaling-stroke"  transform=" translate(-10.5, -6.5)" d="M 16.5 10.5 L 16.5 2.5 C 16.5 1.3954305 15.6045695 0.5 14.5 0.5 L 6.5 0.5 C 5.3954305 0.5 4.5 1.3954305 4.5 2.5 L 4.5 10.5 C 4.5 11.6045695 5.3954305 12.5 6.5 12.5 L 14.5 12.5 C 15.6045695 12.5 16.5 11.6045695 16.5 10.5 z" stroke-linecap="round" />
</g>
<g transform="matrix(-1.1 0 0 1.1 12.88 12.7)" id="_53yXljJ9P6dGvDFUlGC_"  >
<path style="stroke: rgb(0,0,0); stroke-width: 1; stroke-dasharray: none; stroke-linecap: round; stroke-dashoffset: 0; stroke-linejoin: round; stroke-miterlimit: 4; fill: none; fill-rule: evenodd; opacity: 1;" vector-effect="non-scaling-stroke"  transform=" translate(0, 0)" d="M -4.05432 -5.99827 C -5.1588899999999995 -5.99827 -5.8370299999999995 -5.10284 -5.8370299999999995 -3.9982699999999998 L -5.8370299999999995 3.9982700000000007 C -5.8370299999999995 5.1028400000000005 -4.941599999999999 5.998270000000001 -3.8370299999999995 5.998270000000001 L -3.8335699999999995 5.998270000000001 L 4.16643 5.984450000000001 C 5.26965 5.982540000000001 5.83703 5.460180000000001 5.83703 4.356960000000001" stroke-linecap="round" />
</g>
<g transform="matrix(-1.1 0 0 1.1 10.76 10.77)" id="maxu_g6vLPBS53HCfj_g5"  >
<path style="stroke: rgb(0,0,0); stroke-width: 1; stroke-dasharray: none; stroke-linecap: round; stroke-dashoffset: 0; stroke-linejoin: round; stroke-miterlimit: 4; fill: none; fill-rule: evenodd; opacity: 1;" vector-effect="non-scaling-stroke"  transform=" translate(0, 0)" d="M -4 -5.99827 C -5.10457 -5.99827 -6 -5.10284 -6 -3.9982699999999998 L -6 3.9982700000000007 C -6 5.1028400000000005 -5.10457 5.998270000000001 -4 5.998270000000001 L -3.99654 5.998270000000001 L 4.0034600000000005 5.984450000000001 C 5.106680000000001 5.982540000000001 6 5.087670000000001 6 3.9844500000000007" stroke-linecap="round" />
</g>
<g transform="matrix(-1.1 0 0 1.1 8.28 8.3)" id="0wsGUYgSyEK8cBoieQlJt"  >
<path style="stroke: rgb(0,0,0); stroke-width: 1; stroke-dasharray: none; stroke-linecap: round; stroke-dashoffset: 0; stroke-linejoin: round; stroke-miterlimit: 4; fill: none; fill-rule: evenodd; opacity: 1;" vector-effect="non-scaling-stroke"  transform=" translate(-10.5, -6.5)" d="M 10.5 3.5 L 10.5 9.5" stroke-linecap="round" />
</g>
<g transform="matrix(0 1.1 1.1 0 8.28 8.3)" id="064a8H_NkGeLzvNZ1bY6w"  >
<path style="stroke: rgb(0,0,0); stroke-width: 1; stroke-dasharray: none; stroke-linecap: round; stroke-dashoffset: 0; stroke-linejoin: round; stroke-miterlimit: 4; fill: none; fill-rule: evenodd; opacity: 1;" vector-effect="non-scaling-stroke"  transform=" translate(-10.5, -6.5)" d="M 10.5 3.5 L 10.5 9.5" stroke-linecap="round" />
</g>
</svg>